# xmcd CD database file
#
# Track frame offsets:
#	150
#	14455
#	38757
#	57757
#	73155
#	92814
#	121429
#	144186
#	168553
#	210816
#
# Disc length: 3091 seconds
#
# Revision: 2
# Processed by: cddbd v1.5.1PL0 Copyright (c) Steve Scherf et al.
# Submitted via: CDex 1.51
#
DISCID=830c110a
DTITLE=Loene Carmen - Slight Delay
DYEAR=2004
DGENRE=Blues
TTITLE0=Slight Delay
TTITLE1=The Things That Matter
TTITLE2=Forget Everything
TTITLE3=Little Seed
TTITLE4=I Don't Think I Will
TTITLE5=Six Strings Of Pleasure
TTITLE6=No One Knows
TTITLE7=Strangely Calm
TTITLE8=Just Go Along For The Ride
TTITLE9=Time To Go To Bed
EXTD=YEAR: 2004
EXTT0=
EXTT1=
EXTT2=
EXTT3=
EXTT4=
EXTT5=
EXTT6=
EXTT7=
EXTT8=
EXTT9=
PLAYORDER=
